<svg id="Camada_1" data-name="Camada 1" xmlns="http://www.w3.org/2000/svg" xmlns:xlink="http://www.w3.org/1999/xlink" viewBox="0 0 1253 246.93"><defs><linearGradient id="linear-gradient" x1="800.48" y1="526.77" x2="843.14" y2="367.77" gradientTransform="translate(-757.98)" gradientUnits="userSpaceOnUse"><stop offset="0.18" stop-color="#f38021"/><stop offset="0.78" stop-color="#921e5c"/></linearGradient></defs><title>logo-h</title><path d="M314.84,483.74H272.51c-.17-2.34-.33-5.52-.33-7.86s.16-5.52.33-7.86l10-1.68V434.89H239.72v31.45l10,1.68c.17,2.34.34,5.51.34,7.86s-.17,5.52-.34,7.86H207.42c-.16-2.34-.33-5.52-.33-7.86s.17-5.52.33-7.86l11.38-1.68v-78l-11.38-1.67c-.16-2.34-.33-5.52-.33-7.86s.17-5.53.33-7.87h42.33c.17,2.34.34,5.52.34,7.87s-.17,5.52-.34,7.86l-10,1.67v29.12h42.83V388.37l-10-1.67c-.17-2.34-.33-5.52-.33-7.86s.16-5.53.33-7.87h42.33c.17,2.34.33,5.52.33,7.87s-.16,5.52-.33,7.86l-11.38,1.67v78L314.84,468c.17,2.34.33,5.51.33,7.86S315,481.4,314.84,483.74Z" transform="translate(-12 -316.36)" style="fill:#fff"/><path d="M374.57,483.74H334.41c-.16-2.34-.33-5.18-.33-7.53s.17-4.85.33-7.19l10.71-1.68V413.13l-11-1c-.17-2-.33-4.85-.33-7.19s.16-5,.33-7a186.2,186.2,0,0,1,30.62-2.34L364,413.3v54L374.57,469c.17,2.34.33,4.85.33,7.19S374.74,481.4,374.57,483.74ZM353.82,384c-7.36,0-11-5.18-11-11.21,0-5.85,3.68-11.37,11.21-11.37s11,5.52,11,11.37C365,379,361.35,384,353.82,384Z" transform="translate(-12 -316.36)" style="fill:#fff"/><path d="M432.29,485.41a48.21,48.21,0,0,1-13.89-2.34v18.74l10.88,1.67a52.92,52.92,0,0,1,.5,7.2,57.71,57.71,0,0,1-.5,7.53H388.79c-.17-2.34-.33-5.19-.33-7.53,0-2.18.16-4.85.33-7.2l10.71-1.67V413.13l-11-1c-.17-2-.34-4.85-.34-7.19s.17-5,.34-7a178.13,178.13,0,0,1,29.94-2.34l-.5,8.53h1.34c7.36-7,14.06-9.37,22.09-9.37,17.56,0,31.28,10.54,31.28,43.34C472.61,469.69,456.89,485.41,432.29,485.41Zm3-73.78a27.66,27.66,0,0,0-16.9,5.86v48.35a28.71,28.71,0,0,0,13.56,3c13.55,0,20.41-7.19,20.41-30.78C452.37,417.49,446,411.63,435.3,411.63Z" transform="translate(-12 -316.36)" style="fill:#fff"/><path d="M532.34,485.41a48.09,48.09,0,0,1-13.88-2.34v18.74l10.87,1.67a51.36,51.36,0,0,1,.5,7.2,56,56,0,0,1-.5,7.53H488.84c-.16-2.34-.33-5.19-.33-7.53,0-2.18.17-4.85.33-7.2l10.71-1.67V413.13l-11-1c-.17-2-.34-4.85-.34-7.19s.17-5,.34-7a178.17,178.17,0,0,1,30-2.34l-.5,8.53h1.33c7.36-7,14.06-9.37,22.09-9.37,17.57,0,31.29,10.54,31.29,43.34C572.67,469.69,556.94,485.41,532.34,485.41Zm3-73.78a27.61,27.61,0,0,0-16.9,5.86v48.35a28.67,28.67,0,0,0,13.55,3c13.55,0,20.41-7.19,20.41-30.78C552.42,417.49,546.06,411.63,535.36,411.63Z" transform="translate(-12 -316.36)" style="fill:#fff"/><path d="M626.7,485.41c-22.41,0-38.64-12.88-38.64-45.34,0-29.78,16.73-45.34,39.15-45.34,22.25,0,38.48,12.55,38.48,45.34C665.69,470.19,648.79,485.41,626.7,485.41Zm.51-74c-11.71,0-18.74,6.19-18.74,28.61,0,22.09,6.36,28.61,18.23,28.61,11.72,0,18.74-6.19,18.74-28.61C645.44,418,639.09,411.46,627.21,411.46Z" transform="translate(-12 -316.36)" style="fill:#fff"/><path d="M721.74,485.41c-26.44,0-40.66-14.55-40.66-44.5,0-32.79,17.24-46.18,39-46.18a73.85,73.85,0,0,1,24.26,3.85v24.26a65.7,65.7,0,0,1-8,.5,70,70,0,0,1-8.54-.5l-1.84-10.21a25.62,25.62,0,0,0-6.86-.83c-11.21,0-17.57,6.69-17.57,27.27,0,22.92,6.7,28.44,20.92,28.44a40.61,40.61,0,0,0,18.74-4.85,101.55,101.55,0,0,1,4,17.4C739,483.57,728.77,485.41,721.74,485.41Z" transform="translate(-12 -316.36)" style="fill:#fff"/><path d="M840,473.53c0,8.2-4.35,11.88-12.89,11.88-7.19,0-13-1.84-16.23-9h-.83c-7.7,6.36-15.23,9-23.93,9-15.39,0-25.76-7.69-25.76-24.76,0-18.74,10.87-25.43,31.79-26.26l15.72-.68v-18.4c-4-2-10.54-3.35-16.56-3.35-7,0-15.06,1.34-20.41,3.85a82.14,82.14,0,0,1-2.68-17.56,84.53,84.53,0,0,1,24.1-3.52c12,0,25.76,2.68,34.13,9.2V463c0,3.52,1,4.86,4.35,4.86H840ZM807.9,446.26l-15,.67c-9.54.5-12.89,3.68-12.89,12.55,0,8,3.35,11.21,10.88,11.21a32.93,32.93,0,0,0,17.06-5.19Z" transform="translate(-12 -316.36)" style="fill:#fff"/><path d="M986.93,483.74H950.12a57.6,57.6,0,0,1-.5-7.53,52.66,52.66,0,0,1,.5-7.19l7.36-1.68V423.68c0-7-3.18-11.55-11.88-11.55a24.45,24.45,0,0,0-16.06,5.69v49.52l8,1.68c.17,2.34.34,5,.34,7.19,0,2.35-.17,5.19-.34,7.53h-34.3a57.6,57.6,0,0,1-.5-7.53,52.66,52.66,0,0,1,.5-7.19l7.36-1.68v-43.5c0-7.36-3.18-11.71-11.37-11.71a29.78,29.78,0,0,0-16.57,5.52v49.69l8,1.68c.17,2.34.34,4.85.34,7.19s-.17,5.19-.34,7.53H853.08c-.17-2.34-.34-5.18-.34-7.53s.17-4.85.34-7.19l10.71-1.68V413.13l-11-1c-.16-2-.33-4.85-.33-7.19s.17-5,.33-7a178.33,178.33,0,0,1,30-2.34l-.67,9.37h1.51c7.86-7.53,14.55-10.21,23.42-10.21s15.73,3.18,19.58,10.88c8.7-8,16.06-10.88,25.26-10.88,13.89,0,24.6,7.2,24.6,26.77v45.84L986.93,469c.17,2.34.33,5,.33,7.19C987.26,478.56,987.1,481.4,986.93,483.74Z" transform="translate(-12 -316.36)" style="fill:#fff"/><path d="M1044.15,485.41a48.15,48.15,0,0,1-13.89-2.34v18.74l10.88,1.67a52.92,52.92,0,0,1,.5,7.2,57.71,57.71,0,0,1-.5,7.53h-40.49c-.17-2.34-.34-5.19-.34-7.53,0-2.18.17-4.85.34-7.2l10.71-1.67V413.13l-11.05-1c-.16-2-.33-4.85-.33-7.19s.17-5,.33-7a178.25,178.25,0,0,1,30-2.34l-.5,8.53h1.34c7.36-7,14.05-9.37,22.08-9.37,17.57,0,31.29,10.54,31.29,43.34C1084.47,469.69,1068.74,485.41,1044.15,485.41Zm3-73.78a27.64,27.64,0,0,0-16.9,5.86v48.35a28.7,28.7,0,0,0,13.55,3c13.56,0,20.42-7.19,20.42-30.78C1064.23,417.49,1057.87,411.63,1047.16,411.63Z" transform="translate(-12 -316.36)" style="fill:#fff"/><path d="M1189.54,483.74h-29.45l.34-7.53h-1.34c-7.86,6.19-15.56,9.2-24.93,9.2-13.55,0-24.26-7-24.26-26.76V413.13l-9.2-1a47.84,47.84,0,0,1-.5-7.19,45.6,45.6,0,0,1,.5-7,174.19,174.19,0,0,1,28.78-2.34l-.67,17.73v42.83c0,7.7,3.51,11.89,13,11.89a35.93,35.93,0,0,0,18.23-5V412.8l-11.71-1.67a52.8,52.8,0,0,1-.5-7.2,57.83,57.83,0,0,1,.5-7.53h31.46l-.84,16.9v54l10.54,1.68a51.11,51.11,0,0,1,.5,7.19A55.91,55.91,0,0,1,1189.54,483.74Z" transform="translate(-12 -316.36)" style="fill:#fff"/><path d="M1231.71,485.41c-9.88,0-20.25-2-27.78-6V460.15a67.1,67.1,0,0,1,8.37-.5,69,69,0,0,1,8.36.5L1222,468a37,37,0,0,0,10.71,1.67c9,0,12.21-3.18,12.21-10,0-14.22-40.66-9.54-40.66-37,0-18.4,15.57-27.94,34.64-27.94a87.68,87.68,0,0,1,23.09,2.85v20.91a68.8,68.8,0,0,1-16.56,0l-1.51-7.53a30.29,30.29,0,0,0-7.86-.84c-8,0-11.89,3.52-11.89,9.54,0,12.88,40.83,8.7,40.83,38.48C1265,476.71,1249.44,485.41,1231.71,485.41Z" transform="translate(-12 -316.36)" style="fill:#fff"/><path d="M106.64,354.42a3.51,3.51,0,0,1-1.71-.44L52.72,325.72a3.6,3.6,0,1,1,3.43-6.33l52.21,28.26a3.6,3.6,0,0,1-1.72,6.77Zm21,36.72a3.61,3.61,0,0,0-1.46-4.88l-12.55-6.8-.12-.06-75.3-40.76A3.6,3.6,0,0,0,34.79,345l75.41,40.81.12.07,12.45,6.73a3.51,3.51,0,0,0,1.71.44A3.62,3.62,0,0,0,127.65,391.14ZM118,414.85A3.61,3.61,0,0,0,116.5,410L30.06,363.19a3.6,3.6,0,1,0-3.43,6.33l86.44,46.78a3.51,3.51,0,0,0,1.71.44A3.59,3.59,0,0,0,118,414.85ZM120.1,445a3.61,3.61,0,0,0-1.46-4.88L17.84,385.53a3.6,3.6,0,1,0-3.42,6.33l100.8,54.56a3.51,3.51,0,0,0,1.71.44A3.62,3.62,0,0,0,120.1,445ZM96.62,475.7a3.6,3.6,0,0,0-1.45-4.88l-41-22.19A3.6,3.6,0,1,0,50.74,455l41,22.2a3.64,3.64,0,0,0,1.71.43A3.59,3.59,0,0,0,96.62,475.7ZM27.93,438.51a3.59,3.59,0,0,0-1.46-4.87l-2.27-1.23a3.6,3.6,0,0,0-3.42,6.34L23.05,440a3.54,3.54,0,0,0,1.71.44A3.6,3.6,0,0,0,27.93,438.51Zm76.3,70.27a3.61,3.61,0,0,0-1.46-4.88L89,496.44a3.6,3.6,0,1,0-3.43,6.33l13.79,7.46a3.51,3.51,0,0,0,1.71.44A3.62,3.62,0,0,0,104.23,508.78ZM73.91,492.37a3.6,3.6,0,0,0-1.45-4.88L48.1,474.31a3.6,3.6,0,1,0-3.42,6.33L69,493.82a3.51,3.51,0,0,0,1.71.44A3.59,3.59,0,0,0,73.91,492.37Zm32.39,46.49a3.6,3.6,0,0,0-1.45-4.88l-12.76-6.91a3.6,3.6,0,1,0-3.43,6.33l12.76,6.91a3.5,3.5,0,0,0,1.71.43A3.6,3.6,0,0,0,106.3,538.86ZM59.39,513.47a3.6,3.6,0,0,0-1.45-4.88l-19.4-10.5a3.6,3.6,0,1,0-3.43,6.33l19.4,10.5a3.54,3.54,0,0,0,1.71.44A3.61,3.61,0,0,0,59.39,513.47ZM87.9,557.86A3.61,3.61,0,0,0,86.44,553L35.87,525.6a3.6,3.6,0,1,0-3.43,6.33L83,559.31a3.61,3.61,0,0,0,4.88-1.45Zm44.57-178.59a3.61,3.61,0,0,0-1.46-4.88l-86.46-46.8a3.62,3.62,0,0,0-1.71-.43h0A3.6,3.6,0,0,0,41.2,334l86.39,46.76a3.51,3.51,0,0,0,1.71.44A3.6,3.6,0,0,0,132.47,379.27Zm-53.86,3.41a3.55,3.55,0,0,1-1.72-.44L26.62,355A3.6,3.6,0,1,1,30,348.7l50.2,27.17a3.6,3.6,0,0,1-1.63,6.81Zm39.62,50.4a3.62,3.62,0,0,1-1.71-.43l-87.76-47.5a3.6,3.6,0,1,1,3.43-6.33l87.75,47.49a3.6,3.6,0,0,1-1.71,6.77Zm-6.12,25.65a3.51,3.51,0,0,1-1.71-.44L13.89,406.06a3.6,3.6,0,1,1,3.42-6.33L113.82,452a3.6,3.6,0,0,1-1.71,6.77ZM104,468.82a3.51,3.51,0,0,1-1.71-.44l-56-30.31a3.6,3.6,0,0,1,1.63-6.81,3.65,3.65,0,0,1,1.72.43l56.1,30.36a3.6,3.6,0,0,1-1.72,6.77ZM35.88,432h0a3.51,3.51,0,0,1-1.71-.44L14.4,420.82a3.6,3.6,0,1,1,3.43-6.33l19.68,10.65A3.6,3.6,0,0,1,35.88,432Zm46,53.85h0a3.63,3.63,0,0,1-1.72-.43L48.87,468.42a3.6,3.6,0,1,1,3.43-6.33L83.48,479a3.68,3.68,0,0,1,1,.68,3.6,3.6,0,0,1-2.55,6.14Zm1,29.5a3.54,3.54,0,0,1-1.71-.44l-8-4.33a3.6,3.6,0,1,1,3.42-6.33l8,4.33a3.6,3.6,0,0,1-1.72,6.77Zm22.94,12.42a3.54,3.54,0,0,1-1.71-.44l-11.85-6.42a3.6,3.6,0,1,1,3.42-6.33L107.53,521a3.6,3.6,0,0,1-1.72,6.77Zm-44.38-24a3.57,3.57,0,0,1-1.71-.44l-20-10.81a3.6,3.6,0,1,1,3.42-6.33l20,10.81a3.6,3.6,0,0,1-1.72,6.77Zm34.66,47.71a3.62,3.62,0,0,1-1.71-.43L77.8,542a3.6,3.6,0,1,1,3.43-6.33l16.58,9a3.6,3.6,0,0,1-1.72,6.76ZM56.48,530a3.62,3.62,0,0,1-1.71-.43L32,517.2a3.6,3.6,0,0,1,3.42-6.34l22.8,12.34A3.6,3.6,0,0,1,56.48,530Zm8,33.32a3.55,3.55,0,0,1-1.84-.51l-20-10.8a3.6,3.6,0,0,1,1.63-6.81h0a3.58,3.58,0,0,1,1.72.44l20.15,10.91a3.43,3.43,0,0,1,1,.74,3.61,3.61,0,0,1-2.66,6ZM98,335.25a3.57,3.57,0,0,1-1.71-.44l-5.77-3.12-.12-.07-9.59-5.19-.12-.06-6-3.25a3.6,3.6,0,1,1,3.43-6.33L84,320l.12.06,9.55,5.17.24.13,5.8,3.14A3.6,3.6,0,0,1,98,335.25Z" transform="translate(-12 -316.36)" style="fill:url(#linear-gradient)"/></svg>